<mxfile host="app.diagrams.net" modified="2023-06-05T07:33:14.517Z" agent="Mozilla/5.0 (Windows NT 10.0; Win64; x64) AppleWebKit/537.36 (KHTML, like Gecko) Chrome/114.0.0.0 Safari/537.36" etag="jWVMdm50nAeHkLpHKYUo" version="21.3.7" type="device">
  <diagram name="Страница 1" id="tM1gsI3mUhbZycjIRyBm">
    <mxGraphModel dx="444" dy="454" grid="1" gridSize="10" guides="1" tooltips="1" connect="1" arrows="1" fold="1" page="1" pageScale="1" pageWidth="827" pageHeight="1169" math="0" shadow="0">
      <root>
        <mxCell id="0" />
        <mxCell id="1" parent="0" />
        <mxCell id="iwaiVI-cJgjjKh6NhBmS-109" value="" style="rounded=0;whiteSpace=wrap;html=1;fillColor=none;" vertex="1" parent="1">
          <mxGeometry x="305" y="2255" width="295" height="135" as="geometry" />
        </mxCell>
        <mxCell id="iwaiVI-cJgjjKh6NhBmS-56" value="" style="ellipse;whiteSpace=wrap;html=1;fillColor=none;movable=0;resizable=0;rotatable=0;deletable=0;editable=0;locked=1;connectable=0;" vertex="1" parent="1">
          <mxGeometry x="370" y="1020" width="140" height="140" as="geometry" />
        </mxCell>
        <mxCell id="iwaiVI-cJgjjKh6NhBmS-3" value="" style="endArrow=classic;html=1;rounded=0;" edge="1" parent="1">
          <mxGeometry width="50" height="50" relative="1" as="geometry">
            <mxPoint x="200" y="440" as="sourcePoint" />
            <mxPoint x="200" y="160" as="targetPoint" />
          </mxGeometry>
        </mxCell>
        <mxCell id="iwaiVI-cJgjjKh6NhBmS-4" value="" style="endArrow=classic;html=1;rounded=0;" edge="1" parent="1">
          <mxGeometry width="50" height="50" relative="1" as="geometry">
            <mxPoint x="200" y="440" as="sourcePoint" />
            <mxPoint x="520" y="440" as="targetPoint" />
          </mxGeometry>
        </mxCell>
        <mxCell id="iwaiVI-cJgjjKh6NhBmS-5" value="Потраченное время" style="text;html=1;strokeColor=none;fillColor=none;align=center;verticalAlign=middle;whiteSpace=wrap;rounded=0;" vertex="1" parent="1">
          <mxGeometry x="130" y="150" width="60" height="30" as="geometry" />
        </mxCell>
        <mxCell id="iwaiVI-cJgjjKh6NhBmS-6" value="Прогресс" style="text;html=1;strokeColor=none;fillColor=none;align=center;verticalAlign=middle;whiteSpace=wrap;rounded=0;" vertex="1" parent="1">
          <mxGeometry x="500" y="440" width="60" height="30" as="geometry" />
        </mxCell>
        <mxCell id="iwaiVI-cJgjjKh6NhBmS-9" value="" style="endArrow=none;html=1;curved=1;" edge="1" parent="1">
          <mxGeometry width="50" height="50" relative="1" as="geometry">
            <mxPoint x="200" y="420" as="sourcePoint" />
            <mxPoint x="450" y="170" as="targetPoint" />
            <Array as="points">
              <mxPoint x="430" y="380" />
            </Array>
          </mxGeometry>
        </mxCell>
        <mxCell id="iwaiVI-cJgjjKh6NhBmS-10" value="" style="endArrow=none;html=1;curved=1;" edge="1" parent="1">
          <mxGeometry width="50" height="50" relative="1" as="geometry">
            <mxPoint x="200" y="380" as="sourcePoint" />
            <mxPoint x="510" y="180" as="targetPoint" />
            <Array as="points">
              <mxPoint x="430" y="340" />
            </Array>
          </mxGeometry>
        </mxCell>
        <mxCell id="iwaiVI-cJgjjKh6NhBmS-11" value="" style="endArrow=none;dashed=1;html=1;curved=1;" edge="1" parent="1">
          <mxGeometry width="50" height="50" relative="1" as="geometry">
            <mxPoint x="200" y="310" as="sourcePoint" />
            <mxPoint x="530" y="270" as="targetPoint" />
            <Array as="points">
              <mxPoint x="380" y="300" />
            </Array>
          </mxGeometry>
        </mxCell>
        <mxCell id="iwaiVI-cJgjjKh6NhBmS-12" value="Без тестов" style="text;html=1;strokeColor=none;fillColor=none;align=center;verticalAlign=middle;whiteSpace=wrap;rounded=0;" vertex="1" parent="1">
          <mxGeometry x="390" y="130" width="60" height="30" as="geometry" />
        </mxCell>
        <mxCell id="iwaiVI-cJgjjKh6NhBmS-13" value="С плохими тестами" style="text;html=1;strokeColor=none;fillColor=none;align=center;verticalAlign=middle;whiteSpace=wrap;rounded=0;" vertex="1" parent="1">
          <mxGeometry x="510" y="160" width="70" height="30" as="geometry" />
        </mxCell>
        <mxCell id="iwaiVI-cJgjjKh6NhBmS-14" value="С хорошими тестами" style="text;html=1;strokeColor=none;fillColor=none;align=center;verticalAlign=middle;whiteSpace=wrap;rounded=0;rotation=0;" vertex="1" parent="1">
          <mxGeometry x="520" y="280" width="80" height="30" as="geometry" />
        </mxCell>
        <mxCell id="iwaiVI-cJgjjKh6NhBmS-15" value="" style="ellipse;whiteSpace=wrap;html=1;fillColor=#647687;strokeColor=#314354;fontColor=#ffffff;" vertex="1" parent="1">
          <mxGeometry x="357.5" y="560" width="60" height="60" as="geometry" />
        </mxCell>
        <mxCell id="iwaiVI-cJgjjKh6NhBmS-16" value="Зависимость" style="text;html=1;strokeColor=none;fillColor=none;align=center;verticalAlign=middle;whiteSpace=wrap;rounded=0;" vertex="1" parent="1">
          <mxGeometry x="335" y="530" width="90" height="30" as="geometry" />
        </mxCell>
        <mxCell id="iwaiVI-cJgjjKh6NhBmS-17" value="" style="ellipse;whiteSpace=wrap;html=1;fillColor=#647687;strokeColor=#314354;fontColor=#ffffff;" vertex="1" parent="1">
          <mxGeometry x="440" y="660" width="60" height="60" as="geometry" />
        </mxCell>
        <mxCell id="iwaiVI-cJgjjKh6NhBmS-18" value="Приватная" style="text;html=1;strokeColor=none;fillColor=none;align=center;verticalAlign=middle;whiteSpace=wrap;rounded=0;" vertex="1" parent="1">
          <mxGeometry x="425" y="630" width="90" height="30" as="geometry" />
        </mxCell>
        <mxCell id="iwaiVI-cJgjjKh6NhBmS-19" value="" style="ellipse;whiteSpace=wrap;html=1;fillColor=#909498;strokeColor=#314354;fontColor=#ffffff;" vertex="1" parent="1">
          <mxGeometry x="540" y="760" width="60" height="60" as="geometry" />
        </mxCell>
        <mxCell id="iwaiVI-cJgjjKh6NhBmS-20" value="Объект-значение" style="text;html=1;strokeColor=none;fillColor=none;align=center;verticalAlign=middle;whiteSpace=wrap;rounded=0;" vertex="1" parent="1">
          <mxGeometry x="520" y="820" width="105" height="30" as="geometry" />
        </mxCell>
        <mxCell id="iwaiVI-cJgjjKh6NhBmS-21" value="" style="ellipse;whiteSpace=wrap;html=1;fillColor=#909498;strokeColor=#314354;fontColor=#ffffff;" vertex="1" parent="1">
          <mxGeometry x="380" y="770" width="60" height="60" as="geometry" />
        </mxCell>
        <mxCell id="iwaiVI-cJgjjKh6NhBmS-23" value="Изменяемая" style="text;html=1;strokeColor=none;fillColor=none;align=center;verticalAlign=middle;whiteSpace=wrap;rounded=0;" vertex="1" parent="1">
          <mxGeometry x="357.5" y="830" width="105" height="30" as="geometry" />
        </mxCell>
        <mxCell id="iwaiVI-cJgjjKh6NhBmS-25" value="" style="endArrow=classic;html=1;rounded=0;exitX=1;exitY=1;exitDx=0;exitDy=0;" edge="1" parent="1" source="iwaiVI-cJgjjKh6NhBmS-15" target="iwaiVI-cJgjjKh6NhBmS-17">
          <mxGeometry width="50" height="50" relative="1" as="geometry">
            <mxPoint x="390" y="640" as="sourcePoint" />
            <mxPoint x="440" y="590" as="targetPoint" />
          </mxGeometry>
        </mxCell>
        <mxCell id="iwaiVI-cJgjjKh6NhBmS-27" value="" style="endArrow=classic;html=1;rounded=0;exitX=1;exitY=1;exitDx=0;exitDy=0;entryX=0;entryY=0;entryDx=0;entryDy=0;" edge="1" parent="1" source="iwaiVI-cJgjjKh6NhBmS-17" target="iwaiVI-cJgjjKh6NhBmS-19">
          <mxGeometry width="50" height="50" relative="1" as="geometry">
            <mxPoint x="390" y="640" as="sourcePoint" />
            <mxPoint x="440" y="590" as="targetPoint" />
          </mxGeometry>
        </mxCell>
        <mxCell id="iwaiVI-cJgjjKh6NhBmS-28" value="" style="endArrow=classic;html=1;rounded=0;exitX=0;exitY=1;exitDx=0;exitDy=0;entryX=0.667;entryY=0;entryDx=0;entryDy=0;entryPerimeter=0;" edge="1" parent="1" source="iwaiVI-cJgjjKh6NhBmS-17" target="iwaiVI-cJgjjKh6NhBmS-21">
          <mxGeometry width="50" height="50" relative="1" as="geometry">
            <mxPoint x="390" y="640" as="sourcePoint" />
            <mxPoint x="440" y="590" as="targetPoint" />
          </mxGeometry>
        </mxCell>
        <mxCell id="iwaiVI-cJgjjKh6NhBmS-29" value="" style="ellipse;whiteSpace=wrap;html=1;fillColor=#909498;strokeColor=#314354;fontColor=#ffffff;" vertex="1" parent="1">
          <mxGeometry x="250" y="650" width="60" height="60" as="geometry" />
        </mxCell>
        <mxCell id="iwaiVI-cJgjjKh6NhBmS-30" value="Совместная" style="text;html=1;strokeColor=none;fillColor=none;align=center;verticalAlign=middle;whiteSpace=wrap;rounded=0;" vertex="1" parent="1">
          <mxGeometry x="227.5" y="710" width="105" height="30" as="geometry" />
        </mxCell>
        <mxCell id="iwaiVI-cJgjjKh6NhBmS-32" value="" style="endArrow=none;html=1;curved=1;exitX=1;exitY=0.75;exitDx=0;exitDy=0;entryX=1;entryY=0.75;entryDx=0;entryDy=0;" edge="1" parent="1" source="iwaiVI-cJgjjKh6NhBmS-30" target="iwaiVI-cJgjjKh6NhBmS-30">
          <mxGeometry width="50" height="50" relative="1" as="geometry">
            <mxPoint x="390" y="640" as="sourcePoint" />
            <mxPoint x="210" y="730" as="targetPoint" />
            <Array as="points">
              <mxPoint x="333" y="630" />
              <mxPoint x="240" y="630" />
              <mxPoint x="200" y="740" />
              <mxPoint x="270" y="750" />
            </Array>
          </mxGeometry>
        </mxCell>
        <mxCell id="iwaiVI-cJgjjKh6NhBmS-33" value="" style="endArrow=none;html=1;rounded=0;" edge="1" parent="1">
          <mxGeometry width="50" height="50" relative="1" as="geometry">
            <mxPoint x="180" y="570" as="sourcePoint" />
            <mxPoint x="250" y="640" as="targetPoint" />
          </mxGeometry>
        </mxCell>
        <mxCell id="iwaiVI-cJgjjKh6NhBmS-35" value="Заменяется в классической школе" style="text;html=1;strokeColor=none;fillColor=none;align=center;verticalAlign=middle;whiteSpace=wrap;rounded=0;" vertex="1" parent="1">
          <mxGeometry x="120" y="530" width="130" height="30" as="geometry" />
        </mxCell>
        <mxCell id="iwaiVI-cJgjjKh6NhBmS-36" value="" style="endArrow=none;dashed=1;html=1;curved=1;" edge="1" parent="1">
          <mxGeometry width="50" height="50" relative="1" as="geometry">
            <mxPoint x="470" y="780" as="sourcePoint" />
            <mxPoint x="470" y="780" as="targetPoint" />
            <Array as="points">
              <mxPoint x="470" y="950" />
              <mxPoint x="100" y="690" />
              <mxPoint x="310" y="500" />
            </Array>
          </mxGeometry>
        </mxCell>
        <mxCell id="iwaiVI-cJgjjKh6NhBmS-37" value="" style="endArrow=none;html=1;rounded=0;" edge="1" parent="1">
          <mxGeometry width="50" height="50" relative="1" as="geometry">
            <mxPoint x="100" y="740" as="sourcePoint" />
            <mxPoint x="220" y="770" as="targetPoint" />
          </mxGeometry>
        </mxCell>
        <mxCell id="iwaiVI-cJgjjKh6NhBmS-38" value="Заменяется в лондонской школе" style="text;html=1;strokeColor=none;fillColor=none;align=center;verticalAlign=middle;whiteSpace=wrap;rounded=0;" vertex="1" parent="1">
          <mxGeometry x="20" y="700" width="130" height="30" as="geometry" />
        </mxCell>
        <mxCell id="iwaiVI-cJgjjKh6NhBmS-39" value="" style="endArrow=classic;html=1;rounded=0;exitX=0;exitY=1;exitDx=0;exitDy=0;entryX=0.973;entryY=0.217;entryDx=0;entryDy=0;entryPerimeter=0;" edge="1" parent="1" source="iwaiVI-cJgjjKh6NhBmS-15" target="iwaiVI-cJgjjKh6NhBmS-29">
          <mxGeometry width="50" height="50" relative="1" as="geometry">
            <mxPoint x="390" y="640" as="sourcePoint" />
            <mxPoint x="440" y="590" as="targetPoint" />
          </mxGeometry>
        </mxCell>
        <mxCell id="iwaiVI-cJgjjKh6NhBmS-54" value="Устойчивость к рефакторингу" style="ellipse;whiteSpace=wrap;html=1;fillColor=none;movable=0;resizable=0;rotatable=0;deletable=0;editable=0;locked=1;connectable=0;" vertex="1" parent="1">
          <mxGeometry x="310" y="930" width="140" height="140" as="geometry" />
        </mxCell>
        <mxCell id="iwaiVI-cJgjjKh6NhBmS-55" value="Защита от багов" style="ellipse;whiteSpace=wrap;html=1;fillColor=none;movable=0;resizable=0;rotatable=0;deletable=0;editable=0;locked=1;connectable=0;" vertex="1" parent="1">
          <mxGeometry x="250" y="1020" width="140" height="140" as="geometry" />
        </mxCell>
        <mxCell id="iwaiVI-cJgjjKh6NhBmS-57" value="Быстрая обратная связь" style="text;html=1;strokeColor=none;fillColor=none;align=center;verticalAlign=middle;whiteSpace=wrap;rounded=0;" vertex="1" parent="1">
          <mxGeometry x="410" y="1070" width="70" height="50" as="geometry" />
        </mxCell>
        <mxCell id="iwaiVI-cJgjjKh6NhBmS-60" value="" style="endArrow=none;html=1;rounded=0;" edge="1" parent="1">
          <mxGeometry width="50" height="50" relative="1" as="geometry">
            <mxPoint x="420" y="1040" as="sourcePoint" />
            <mxPoint x="500" y="990" as="targetPoint" />
          </mxGeometry>
        </mxCell>
        <mxCell id="iwaiVI-cJgjjKh6NhBmS-61" value="Тривиальные тесты" style="text;html=1;strokeColor=none;fillColor=none;align=center;verticalAlign=middle;whiteSpace=wrap;rounded=0;" vertex="1" parent="1">
          <mxGeometry x="490" y="960" width="60" height="30" as="geometry" />
        </mxCell>
        <mxCell id="iwaiVI-cJgjjKh6NhBmS-62" value="" style="endArrow=none;html=1;rounded=0;" edge="1" parent="1">
          <mxGeometry width="50" height="50" relative="1" as="geometry">
            <mxPoint x="250" y="1000" as="sourcePoint" />
            <mxPoint x="340" y="1040" as="targetPoint" />
          </mxGeometry>
        </mxCell>
        <mxCell id="iwaiVI-cJgjjKh6NhBmS-63" value="Сквозные тесты" style="text;html=1;strokeColor=none;fillColor=none;align=center;verticalAlign=middle;whiteSpace=wrap;rounded=0;" vertex="1" parent="1">
          <mxGeometry x="210" y="970" width="60" height="30" as="geometry" />
        </mxCell>
        <mxCell id="iwaiVI-cJgjjKh6NhBmS-64" value="" style="endArrow=none;html=1;rounded=0;" edge="1" parent="1">
          <mxGeometry width="50" height="50" relative="1" as="geometry">
            <mxPoint x="370" y="1180" as="sourcePoint" />
            <mxPoint x="380" y="1100" as="targetPoint" />
          </mxGeometry>
        </mxCell>
        <mxCell id="iwaiVI-cJgjjKh6NhBmS-65" value="Хрупкие тесты" style="text;html=1;strokeColor=none;fillColor=none;align=center;verticalAlign=middle;whiteSpace=wrap;rounded=0;" vertex="1" parent="1">
          <mxGeometry x="340" y="1180" width="60" height="30" as="geometry" />
        </mxCell>
        <mxCell id="iwaiVI-cJgjjKh6NhBmS-66" value="Максимум" style="ellipse;whiteSpace=wrap;html=1;" vertex="1" parent="1">
          <mxGeometry x="414" y="1350" width="70" height="70" as="geometry" />
        </mxCell>
        <mxCell id="iwaiVI-cJgjjKh6NhBmS-67" value="Устойчивость к рефакторингу" style="text;html=1;strokeColor=none;fillColor=none;align=center;verticalAlign=middle;whiteSpace=wrap;rounded=0;" vertex="1" parent="1">
          <mxGeometry x="400" y="1310" width="97.5" height="30" as="geometry" />
        </mxCell>
        <mxCell id="iwaiVI-cJgjjKh6NhBmS-68" value="" style="ellipse;whiteSpace=wrap;html=1;" vertex="1" parent="1">
          <mxGeometry x="300" y="1510" width="70" height="70" as="geometry" />
        </mxCell>
        <mxCell id="iwaiVI-cJgjjKh6NhBmS-69" value="" style="ellipse;whiteSpace=wrap;html=1;" vertex="1" parent="1">
          <mxGeometry x="525" y="1510" width="70" height="70" as="geometry" />
        </mxCell>
        <mxCell id="iwaiVI-cJgjjKh6NhBmS-70" value="" style="endArrow=none;html=1;rounded=0;entryX=0;entryY=1;entryDx=0;entryDy=0;exitX=0.771;exitY=0.049;exitDx=0;exitDy=0;exitPerimeter=0;" edge="1" parent="1" source="iwaiVI-cJgjjKh6NhBmS-68" target="iwaiVI-cJgjjKh6NhBmS-66">
          <mxGeometry width="50" height="50" relative="1" as="geometry">
            <mxPoint x="330" y="1330" as="sourcePoint" />
            <mxPoint x="380" y="1280" as="targetPoint" />
          </mxGeometry>
        </mxCell>
        <mxCell id="iwaiVI-cJgjjKh6NhBmS-72" value="" style="endArrow=none;html=1;rounded=0;exitX=1;exitY=0.5;exitDx=0;exitDy=0;entryX=0;entryY=0.5;entryDx=0;entryDy=0;" edge="1" parent="1" source="iwaiVI-cJgjjKh6NhBmS-68" target="iwaiVI-cJgjjKh6NhBmS-69">
          <mxGeometry width="50" height="50" relative="1" as="geometry">
            <mxPoint x="330" y="1330" as="sourcePoint" />
            <mxPoint x="380" y="1280" as="targetPoint" />
          </mxGeometry>
        </mxCell>
        <mxCell id="iwaiVI-cJgjjKh6NhBmS-73" value="" style="endArrow=none;html=1;rounded=0;entryX=1;entryY=1;entryDx=0;entryDy=0;exitX=0.28;exitY=0.049;exitDx=0;exitDy=0;exitPerimeter=0;" edge="1" parent="1" source="iwaiVI-cJgjjKh6NhBmS-69" target="iwaiVI-cJgjjKh6NhBmS-66">
          <mxGeometry width="50" height="50" relative="1" as="geometry">
            <mxPoint x="330" y="1330" as="sourcePoint" />
            <mxPoint x="380" y="1280" as="targetPoint" />
          </mxGeometry>
        </mxCell>
        <mxCell id="iwaiVI-cJgjjKh6NhBmS-74" value="Защита от багов" style="text;html=1;strokeColor=none;fillColor=none;align=center;verticalAlign=middle;whiteSpace=wrap;rounded=0;" vertex="1" parent="1">
          <mxGeometry x="191.25" y="1530" width="97.5" height="30" as="geometry" />
        </mxCell>
        <mxCell id="iwaiVI-cJgjjKh6NhBmS-75" value="Быстрая обратная связь" style="text;html=1;strokeColor=none;fillColor=none;align=center;verticalAlign=middle;whiteSpace=wrap;rounded=0;" vertex="1" parent="1">
          <mxGeometry x="600" y="1530" width="97.5" height="30" as="geometry" />
        </mxCell>
        <mxCell id="iwaiVI-cJgjjKh6NhBmS-76" value="" style="html=1;shadow=0;dashed=0;align=center;verticalAlign=middle;shape=mxgraph.arrows2.twoWayArrow;dy=0.58;dx=47.55;" vertex="1" parent="1">
          <mxGeometry x="328.13" y="1600" width="233.75" height="40" as="geometry" />
        </mxCell>
        <mxCell id="iwaiVI-cJgjjKh6NhBmS-77" value="" style="rounded=0;whiteSpace=wrap;html=1;direction=south;fillColor=#647687;fontColor=#ffffff;strokeColor=#314354;" vertex="1" parent="1">
          <mxGeometry x="392.5" y="1585" width="17.5" height="70" as="geometry" />
        </mxCell>
        <mxCell id="iwaiVI-cJgjjKh6NhBmS-78" value="" style="rounded=0;whiteSpace=wrap;html=1;direction=south;fillColor=#647687;fontColor=#ffffff;strokeColor=#314354;" vertex="1" parent="1">
          <mxGeometry x="436.5" y="1585" width="17.5" height="70" as="geometry" />
        </mxCell>
        <mxCell id="iwaiVI-cJgjjKh6NhBmS-79" value="" style="rounded=0;whiteSpace=wrap;html=1;direction=south;fillColor=#647687;fontColor=#ffffff;strokeColor=#314354;" vertex="1" parent="1">
          <mxGeometry x="480" y="1585" width="17.5" height="70" as="geometry" />
        </mxCell>
        <mxCell id="iwaiVI-cJgjjKh6NhBmS-80" value="" style="endArrow=none;html=1;rounded=0;entryX=1;entryY=1;entryDx=0;entryDy=0;" edge="1" parent="1" target="iwaiVI-cJgjjKh6NhBmS-77">
          <mxGeometry width="50" height="50" relative="1" as="geometry">
            <mxPoint x="340" y="1690" as="sourcePoint" />
            <mxPoint x="460" y="1480" as="targetPoint" />
          </mxGeometry>
        </mxCell>
        <mxCell id="iwaiVI-cJgjjKh6NhBmS-81" value="Сквозные тесты" style="text;html=1;strokeColor=none;fillColor=none;align=center;verticalAlign=middle;whiteSpace=wrap;rounded=0;" vertex="1" parent="1">
          <mxGeometry x="250" y="1700" width="97.5" height="30" as="geometry" />
        </mxCell>
        <mxCell id="iwaiVI-cJgjjKh6NhBmS-83" value="" style="endArrow=none;html=1;rounded=0;entryX=1;entryY=0.5;entryDx=0;entryDy=0;" edge="1" parent="1" target="iwaiVI-cJgjjKh6NhBmS-78">
          <mxGeometry width="50" height="50" relative="1" as="geometry">
            <mxPoint x="445" y="1710" as="sourcePoint" />
            <mxPoint x="460" y="1480" as="targetPoint" />
          </mxGeometry>
        </mxCell>
        <mxCell id="iwaiVI-cJgjjKh6NhBmS-84" value="Интеграционные тесты" style="text;html=1;strokeColor=none;fillColor=none;align=center;verticalAlign=middle;whiteSpace=wrap;rounded=0;" vertex="1" parent="1">
          <mxGeometry x="396.5" y="1720" width="97.5" height="30" as="geometry" />
        </mxCell>
        <mxCell id="iwaiVI-cJgjjKh6NhBmS-85" value="" style="endArrow=none;html=1;rounded=0;entryX=1;entryY=0;entryDx=0;entryDy=0;" edge="1" parent="1" target="iwaiVI-cJgjjKh6NhBmS-79">
          <mxGeometry width="50" height="50" relative="1" as="geometry">
            <mxPoint x="530" y="1690" as="sourcePoint" />
            <mxPoint x="460" y="1480" as="targetPoint" />
          </mxGeometry>
        </mxCell>
        <mxCell id="iwaiVI-cJgjjKh6NhBmS-86" value="Юнит-тесты" style="text;html=1;strokeColor=none;fillColor=none;align=center;verticalAlign=middle;whiteSpace=wrap;rounded=0;" vertex="1" parent="1">
          <mxGeometry x="527.5" y="1700" width="97.5" height="30" as="geometry" />
        </mxCell>
        <mxCell id="iwaiVI-cJgjjKh6NhBmS-87" value="" style="triangle;whiteSpace=wrap;html=1;rotation=-90;" vertex="1" parent="1">
          <mxGeometry x="291.88" y="1815.63" width="287.5" height="326.25" as="geometry" />
        </mxCell>
        <mxCell id="iwaiVI-cJgjjKh6NhBmS-88" value="" style="shape=curlyBracket;whiteSpace=wrap;html=1;rounded=1;flipH=1;labelPosition=right;verticalLabelPosition=middle;align=left;verticalAlign=middle;rotation=90;" vertex="1" parent="1">
          <mxGeometry x="425" y="2005" width="20" height="320" as="geometry" />
        </mxCell>
        <mxCell id="iwaiVI-cJgjjKh6NhBmS-89" value="" style="endArrow=classic;html=1;rounded=0;" edge="1" parent="1">
          <mxGeometry width="50" height="50" relative="1" as="geometry">
            <mxPoint x="625" y="2120" as="sourcePoint" />
            <mxPoint x="625" y="1840" as="targetPoint" />
          </mxGeometry>
        </mxCell>
        <mxCell id="iwaiVI-cJgjjKh6NhBmS-90" value="" style="endArrow=none;html=1;rounded=0;exitX=0.304;exitY=0.143;exitDx=0;exitDy=0;exitPerimeter=0;entryX=0.304;entryY=0.861;entryDx=0;entryDy=0;entryPerimeter=0;" edge="1" parent="1" source="iwaiVI-cJgjjKh6NhBmS-87" target="iwaiVI-cJgjjKh6NhBmS-87">
          <mxGeometry width="50" height="50" relative="1" as="geometry">
            <mxPoint x="410" y="2040" as="sourcePoint" />
            <mxPoint x="460" y="1990" as="targetPoint" />
          </mxGeometry>
        </mxCell>
        <mxCell id="iwaiVI-cJgjjKh6NhBmS-91" value="" style="endArrow=none;html=1;rounded=0;entryX=0.544;entryY=0.733;entryDx=0;entryDy=0;entryPerimeter=0;exitX=0.546;exitY=0.275;exitDx=0;exitDy=0;exitPerimeter=0;" edge="1" parent="1" source="iwaiVI-cJgjjKh6NhBmS-87" target="iwaiVI-cJgjjKh6NhBmS-87">
          <mxGeometry width="50" height="50" relative="1" as="geometry">
            <mxPoint x="410" y="2040" as="sourcePoint" />
            <mxPoint x="460" y="1990" as="targetPoint" />
          </mxGeometry>
        </mxCell>
        <mxCell id="iwaiVI-cJgjjKh6NhBmS-92" value="Интеграционные тесты" style="text;html=1;strokeColor=none;fillColor=none;align=center;verticalAlign=middle;whiteSpace=wrap;rounded=0;" vertex="1" parent="1">
          <mxGeometry x="391.25" y="1990" width="97.5" height="30" as="geometry" />
        </mxCell>
        <mxCell id="iwaiVI-cJgjjKh6NhBmS-93" value="Юнит-тесты" style="text;html=1;strokeColor=none;fillColor=none;align=center;verticalAlign=middle;whiteSpace=wrap;rounded=0;" vertex="1" parent="1">
          <mxGeometry x="392.5" y="2060" width="97.5" height="30" as="geometry" />
        </mxCell>
        <mxCell id="iwaiVI-cJgjjKh6NhBmS-94" value="Сквозные тесты" style="text;html=1;strokeColor=none;fillColor=none;align=center;verticalAlign=middle;whiteSpace=wrap;rounded=0;" vertex="1" parent="1">
          <mxGeometry x="403.13" y="1910" width="73.75" height="30" as="geometry" />
        </mxCell>
        <mxCell id="iwaiVI-cJgjjKh6NhBmS-95" value="Ввод" style="text;html=1;strokeColor=none;fillColor=none;align=center;verticalAlign=middle;whiteSpace=wrap;rounded=0;" vertex="1" parent="1">
          <mxGeometry x="200" y="2330" width="63.75" height="30" as="geometry" />
        </mxCell>
        <mxCell id="iwaiVI-cJgjjKh6NhBmS-96" value="Эмуляция пользователя" style="text;html=1;strokeColor=none;fillColor=none;align=center;verticalAlign=middle;whiteSpace=wrap;rounded=0;" vertex="1" parent="1">
          <mxGeometry x="610" y="1940" width="133.75" height="30" as="geometry" />
        </mxCell>
        <mxCell id="iwaiVI-cJgjjKh6NhBmS-97" value="" style="ellipse;whiteSpace=wrap;html=1;" vertex="1" parent="1">
          <mxGeometry x="370" y="2270" width="30" height="30" as="geometry" />
        </mxCell>
        <mxCell id="iwaiVI-cJgjjKh6NhBmS-98" value="" style="ellipse;whiteSpace=wrap;html=1;" vertex="1" parent="1">
          <mxGeometry x="380" y="2350" width="30" height="30" as="geometry" />
        </mxCell>
        <mxCell id="iwaiVI-cJgjjKh6NhBmS-99" value="" style="ellipse;whiteSpace=wrap;html=1;" vertex="1" parent="1">
          <mxGeometry x="515" y="2270" width="30" height="30" as="geometry" />
        </mxCell>
        <mxCell id="iwaiVI-cJgjjKh6NhBmS-100" value="" style="ellipse;whiteSpace=wrap;html=1;" vertex="1" parent="1">
          <mxGeometry x="471.88" y="2350" width="30" height="30" as="geometry" />
        </mxCell>
        <mxCell id="iwaiVI-cJgjjKh6NhBmS-101" value="" style="endArrow=classic;html=1;rounded=0;exitX=0.5;exitY=1;exitDx=0;exitDy=0;entryX=0.5;entryY=0;entryDx=0;entryDy=0;" edge="1" parent="1" source="iwaiVI-cJgjjKh6NhBmS-97" target="iwaiVI-cJgjjKh6NhBmS-98">
          <mxGeometry width="50" height="50" relative="1" as="geometry">
            <mxPoint x="410" y="2340" as="sourcePoint" />
            <mxPoint x="460" y="2290" as="targetPoint" />
          </mxGeometry>
        </mxCell>
        <mxCell id="iwaiVI-cJgjjKh6NhBmS-102" value="" style="endArrow=classic;html=1;rounded=0;exitX=1;exitY=0.5;exitDx=0;exitDy=0;entryX=0;entryY=0.5;entryDx=0;entryDy=0;" edge="1" parent="1" source="iwaiVI-cJgjjKh6NhBmS-97" target="iwaiVI-cJgjjKh6NhBmS-99">
          <mxGeometry width="50" height="50" relative="1" as="geometry">
            <mxPoint x="410" y="2340" as="sourcePoint" />
            <mxPoint x="460" y="2290" as="targetPoint" />
          </mxGeometry>
        </mxCell>
        <mxCell id="iwaiVI-cJgjjKh6NhBmS-103" value="" style="endArrow=classic;html=1;rounded=0;entryX=0;entryY=0.5;entryDx=0;entryDy=0;" edge="1" parent="1" target="iwaiVI-cJgjjKh6NhBmS-97">
          <mxGeometry width="50" height="50" relative="1" as="geometry">
            <mxPoint x="320" y="2320" as="sourcePoint" />
            <mxPoint x="460" y="2290" as="targetPoint" />
          </mxGeometry>
        </mxCell>
        <mxCell id="iwaiVI-cJgjjKh6NhBmS-105" value="" style="endArrow=classic;html=1;rounded=0;exitX=1;exitY=0.5;exitDx=0;exitDy=0;" edge="1" parent="1" source="iwaiVI-cJgjjKh6NhBmS-98">
          <mxGeometry width="50" height="50" relative="1" as="geometry">
            <mxPoint x="410" y="2340" as="sourcePoint" />
            <mxPoint x="470" y="2365" as="targetPoint" />
          </mxGeometry>
        </mxCell>
        <mxCell id="iwaiVI-cJgjjKh6NhBmS-106" value="" style="endArrow=classic;html=1;rounded=0;exitX=1;exitY=1;exitDx=0;exitDy=0;" edge="1" parent="1" source="iwaiVI-cJgjjKh6NhBmS-99">
          <mxGeometry width="50" height="50" relative="1" as="geometry">
            <mxPoint x="410" y="2340" as="sourcePoint" />
            <mxPoint x="580" y="2320" as="targetPoint" />
          </mxGeometry>
        </mxCell>
        <mxCell id="iwaiVI-cJgjjKh6NhBmS-107" value="" style="endArrow=classic;html=1;rounded=0;exitX=1;exitY=0.5;exitDx=0;exitDy=0;" edge="1" parent="1" source="iwaiVI-cJgjjKh6NhBmS-100">
          <mxGeometry width="50" height="50" relative="1" as="geometry">
            <mxPoint x="410" y="2340" as="sourcePoint" />
            <mxPoint x="580" y="2350" as="targetPoint" />
          </mxGeometry>
        </mxCell>
        <mxCell id="iwaiVI-cJgjjKh6NhBmS-110" value="" style="shape=flexArrow;endArrow=classic;html=1;rounded=0;" edge="1" parent="1">
          <mxGeometry width="50" height="50" relative="1" as="geometry">
            <mxPoint x="199.38" y="2322" as="sourcePoint" />
            <mxPoint x="280.63" y="2322" as="targetPoint" />
          </mxGeometry>
        </mxCell>
        <mxCell id="iwaiVI-cJgjjKh6NhBmS-111" value="Вывод" style="text;html=1;strokeColor=none;fillColor=none;align=center;verticalAlign=middle;whiteSpace=wrap;rounded=0;" vertex="1" parent="1">
          <mxGeometry x="610" y="2330" width="63.75" height="30" as="geometry" />
        </mxCell>
        <mxCell id="iwaiVI-cJgjjKh6NhBmS-112" value="" style="shape=flexArrow;endArrow=classic;html=1;rounded=0;movable=0;resizable=0;rotatable=0;deletable=0;editable=0;locked=1;connectable=0;" edge="1" parent="1">
          <mxGeometry width="50" height="50" relative="1" as="geometry">
            <mxPoint x="610" y="2312" as="sourcePoint" />
            <mxPoint x="691.25" y="2312" as="targetPoint" />
          </mxGeometry>
        </mxCell>
        <mxCell id="iwaiVI-cJgjjKh6NhBmS-113" value="" style="rounded=0;whiteSpace=wrap;html=1;rotation=-90;" vertex="1" parent="1">
          <mxGeometry x="613" y="2305" width="28.2" height="12.81" as="geometry" />
        </mxCell>
        <mxCell id="iwaiVI-cJgjjKh6NhBmS-116" value="Проверка вывода" style="text;html=1;strokeColor=none;fillColor=none;align=center;verticalAlign=middle;whiteSpace=wrap;rounded=0;" vertex="1" parent="1">
          <mxGeometry x="610" y="2250" width="63.75" height="30" as="geometry" />
        </mxCell>
        <mxCell id="iwaiVI-cJgjjKh6NhBmS-117" value="" style="endArrow=none;html=1;rounded=0;entryX=1.08;entryY=0.42;entryDx=0;entryDy=0;entryPerimeter=0;exitX=0.25;exitY=1;exitDx=0;exitDy=0;" edge="1" parent="1" source="iwaiVI-cJgjjKh6NhBmS-116" target="iwaiVI-cJgjjKh6NhBmS-113">
          <mxGeometry width="50" height="50" relative="1" as="geometry">
            <mxPoint x="640" y="2350" as="sourcePoint" />
            <mxPoint x="690" y="2300" as="targetPoint" />
          </mxGeometry>
        </mxCell>
        <mxCell id="iwaiVI-cJgjjKh6NhBmS-135" value="" style="rounded=0;whiteSpace=wrap;html=1;fillColor=none;" vertex="1" parent="1">
          <mxGeometry x="315.62" y="2445" width="295" height="135" as="geometry" />
        </mxCell>
        <mxCell id="iwaiVI-cJgjjKh6NhBmS-136" value="Ввод" style="text;html=1;strokeColor=none;fillColor=none;align=center;verticalAlign=middle;whiteSpace=wrap;rounded=0;" vertex="1" parent="1">
          <mxGeometry x="210.62" y="2520" width="63.75" height="30" as="geometry" />
        </mxCell>
        <mxCell id="iwaiVI-cJgjjKh6NhBmS-137" value="" style="ellipse;whiteSpace=wrap;html=1;" vertex="1" parent="1">
          <mxGeometry x="380.62" y="2460" width="30" height="30" as="geometry" />
        </mxCell>
        <mxCell id="iwaiVI-cJgjjKh6NhBmS-138" value="" style="ellipse;whiteSpace=wrap;html=1;" vertex="1" parent="1">
          <mxGeometry x="390.62" y="2540" width="30" height="30" as="geometry" />
        </mxCell>
        <mxCell id="iwaiVI-cJgjjKh6NhBmS-139" value="" style="ellipse;whiteSpace=wrap;html=1;" vertex="1" parent="1">
          <mxGeometry x="525.62" y="2460" width="30" height="30" as="geometry" />
        </mxCell>
        <mxCell id="iwaiVI-cJgjjKh6NhBmS-140" value="" style="ellipse;whiteSpace=wrap;html=1;" vertex="1" parent="1">
          <mxGeometry x="482.5" y="2540" width="30" height="30" as="geometry" />
        </mxCell>
        <mxCell id="iwaiVI-cJgjjKh6NhBmS-141" value="" style="endArrow=classic;html=1;rounded=0;exitX=0.5;exitY=1;exitDx=0;exitDy=0;entryX=0.5;entryY=0;entryDx=0;entryDy=0;" edge="1" source="iwaiVI-cJgjjKh6NhBmS-137" target="iwaiVI-cJgjjKh6NhBmS-138" parent="1">
          <mxGeometry width="50" height="50" relative="1" as="geometry">
            <mxPoint x="420.62" y="2530" as="sourcePoint" />
            <mxPoint x="470.62" y="2480" as="targetPoint" />
          </mxGeometry>
        </mxCell>
        <mxCell id="iwaiVI-cJgjjKh6NhBmS-142" value="" style="endArrow=classic;html=1;rounded=0;exitX=1;exitY=0.5;exitDx=0;exitDy=0;entryX=0;entryY=0.5;entryDx=0;entryDy=0;" edge="1" source="iwaiVI-cJgjjKh6NhBmS-137" target="iwaiVI-cJgjjKh6NhBmS-139" parent="1">
          <mxGeometry width="50" height="50" relative="1" as="geometry">
            <mxPoint x="420.62" y="2530" as="sourcePoint" />
            <mxPoint x="470.62" y="2480" as="targetPoint" />
          </mxGeometry>
        </mxCell>
        <mxCell id="iwaiVI-cJgjjKh6NhBmS-143" value="" style="endArrow=classic;html=1;rounded=0;entryX=0;entryY=0.5;entryDx=0;entryDy=0;" edge="1" target="iwaiVI-cJgjjKh6NhBmS-137" parent="1">
          <mxGeometry width="50" height="50" relative="1" as="geometry">
            <mxPoint x="330.62" y="2510" as="sourcePoint" />
            <mxPoint x="470.62" y="2480" as="targetPoint" />
          </mxGeometry>
        </mxCell>
        <mxCell id="iwaiVI-cJgjjKh6NhBmS-144" value="" style="endArrow=classic;html=1;rounded=0;exitX=1;exitY=0.5;exitDx=0;exitDy=0;" edge="1" source="iwaiVI-cJgjjKh6NhBmS-138" parent="1">
          <mxGeometry width="50" height="50" relative="1" as="geometry">
            <mxPoint x="420.62" y="2530" as="sourcePoint" />
            <mxPoint x="480.62" y="2555" as="targetPoint" />
          </mxGeometry>
        </mxCell>
        <mxCell id="iwaiVI-cJgjjKh6NhBmS-147" value="" style="shape=flexArrow;endArrow=classic;html=1;rounded=0;" edge="1" parent="1">
          <mxGeometry width="50" height="50" relative="1" as="geometry">
            <mxPoint x="210" y="2512" as="sourcePoint" />
            <mxPoint x="291.25" y="2512" as="targetPoint" />
          </mxGeometry>
        </mxCell>
        <mxCell id="iwaiVI-cJgjjKh6NhBmS-150" value="Проверка состояния" style="text;html=1;strokeColor=none;fillColor=none;align=center;verticalAlign=middle;whiteSpace=wrap;rounded=0;" vertex="1" parent="1">
          <mxGeometry x="650" y="2445" width="63.75" height="30" as="geometry" />
        </mxCell>
        <mxCell id="iwaiVI-cJgjjKh6NhBmS-151" value="" style="endArrow=none;html=1;rounded=0;" edge="1" target="iwaiVI-cJgjjKh6NhBmS-139" parent="1">
          <mxGeometry width="50" height="50" relative="1" as="geometry">
            <mxPoint x="650" y="2460" as="sourcePoint" />
            <mxPoint x="636.6951999999997" y="2485.049" as="targetPoint" />
          </mxGeometry>
        </mxCell>
        <mxCell id="iwaiVI-cJgjjKh6NhBmS-152" value="" style="ellipse;whiteSpace=wrap;html=1;" vertex="1" parent="1">
          <mxGeometry x="482.5" y="2497.5" width="30" height="30" as="geometry" />
        </mxCell>
        <mxCell id="iwaiVI-cJgjjKh6NhBmS-154" value="" style="endArrow=classic;html=1;rounded=0;exitX=1;exitY=1;exitDx=0;exitDy=0;entryX=0;entryY=0.5;entryDx=0;entryDy=0;" edge="1" parent="1" source="iwaiVI-cJgjjKh6NhBmS-137" target="iwaiVI-cJgjjKh6NhBmS-152">
          <mxGeometry width="50" height="50" relative="1" as="geometry">
            <mxPoint x="550" y="2490" as="sourcePoint" />
            <mxPoint x="600" y="2440" as="targetPoint" />
          </mxGeometry>
        </mxCell>
        <mxCell id="iwaiVI-cJgjjKh6NhBmS-155" value="" style="endArrow=classic;html=1;rounded=0;exitX=1;exitY=0;exitDx=0;exitDy=0;entryX=0;entryY=1;entryDx=0;entryDy=0;" edge="1" parent="1" source="iwaiVI-cJgjjKh6NhBmS-152" target="iwaiVI-cJgjjKh6NhBmS-139">
          <mxGeometry width="50" height="50" relative="1" as="geometry">
            <mxPoint x="550" y="2490" as="sourcePoint" />
            <mxPoint x="600" y="2440" as="targetPoint" />
          </mxGeometry>
        </mxCell>
        <mxCell id="iwaiVI-cJgjjKh6NhBmS-156" value="" style="endArrow=none;html=1;rounded=0;entryX=1;entryY=0.5;entryDx=0;entryDy=0;" edge="1" parent="1" target="iwaiVI-cJgjjKh6NhBmS-140">
          <mxGeometry width="50" height="50" relative="1" as="geometry">
            <mxPoint x="630" y="2550" as="sourcePoint" />
            <mxPoint x="580" y="2440" as="targetPoint" />
          </mxGeometry>
        </mxCell>
        <mxCell id="iwaiVI-cJgjjKh6NhBmS-157" value="Проверка состояния" style="text;html=1;strokeColor=none;fillColor=none;align=center;verticalAlign=middle;whiteSpace=wrap;rounded=0;" vertex="1" parent="1">
          <mxGeometry x="633.75" y="2540" width="63.75" height="30" as="geometry" />
        </mxCell>
        <mxCell id="iwaiVI-cJgjjKh6NhBmS-158" value="" style="rounded=0;whiteSpace=wrap;html=1;fillColor=none;movable=0;resizable=0;rotatable=0;deletable=0;editable=0;locked=1;connectable=0;" vertex="1" parent="1">
          <mxGeometry x="296.87" y="2610" width="253.13" height="135" as="geometry" />
        </mxCell>
        <mxCell id="iwaiVI-cJgjjKh6NhBmS-159" value="Ввод" style="text;html=1;strokeColor=none;fillColor=none;align=center;verticalAlign=middle;whiteSpace=wrap;rounded=0;" vertex="1" parent="1">
          <mxGeometry x="191.87" y="2685" width="63.75" height="30" as="geometry" />
        </mxCell>
        <mxCell id="iwaiVI-cJgjjKh6NhBmS-160" value="" style="ellipse;whiteSpace=wrap;html=1;" vertex="1" parent="1">
          <mxGeometry x="361.87" y="2625" width="30" height="30" as="geometry" />
        </mxCell>
        <mxCell id="iwaiVI-cJgjjKh6NhBmS-161" value="" style="ellipse;whiteSpace=wrap;html=1;" vertex="1" parent="1">
          <mxGeometry x="371.87" y="2705" width="30" height="30" as="geometry" />
        </mxCell>
        <mxCell id="iwaiVI-cJgjjKh6NhBmS-162" value="" style="ellipse;whiteSpace=wrap;html=1;" vertex="1" parent="1">
          <mxGeometry x="506.87" y="2625" width="30" height="30" as="geometry" />
        </mxCell>
        <mxCell id="iwaiVI-cJgjjKh6NhBmS-163" value="" style="ellipse;whiteSpace=wrap;html=1;" vertex="1" parent="1">
          <mxGeometry x="463.75" y="2705" width="30" height="30" as="geometry" />
        </mxCell>
        <mxCell id="iwaiVI-cJgjjKh6NhBmS-164" value="" style="endArrow=classic;html=1;rounded=0;exitX=0.5;exitY=1;exitDx=0;exitDy=0;entryX=0.5;entryY=0;entryDx=0;entryDy=0;" edge="1" source="iwaiVI-cJgjjKh6NhBmS-160" target="iwaiVI-cJgjjKh6NhBmS-161" parent="1">
          <mxGeometry width="50" height="50" relative="1" as="geometry">
            <mxPoint x="401.87" y="2695" as="sourcePoint" />
            <mxPoint x="451.87" y="2645" as="targetPoint" />
          </mxGeometry>
        </mxCell>
        <mxCell id="iwaiVI-cJgjjKh6NhBmS-165" value="" style="endArrow=classic;html=1;rounded=0;exitX=1;exitY=0.5;exitDx=0;exitDy=0;entryX=0;entryY=0.5;entryDx=0;entryDy=0;movable=0;resizable=0;rotatable=0;deletable=0;editable=0;locked=1;connectable=0;" edge="1" source="iwaiVI-cJgjjKh6NhBmS-160" target="iwaiVI-cJgjjKh6NhBmS-162" parent="1">
          <mxGeometry width="50" height="50" relative="1" as="geometry">
            <mxPoint x="401.87" y="2695" as="sourcePoint" />
            <mxPoint x="451.87" y="2645" as="targetPoint" />
          </mxGeometry>
        </mxCell>
        <mxCell id="iwaiVI-cJgjjKh6NhBmS-166" value="" style="endArrow=classic;html=1;rounded=0;entryX=0;entryY=0.5;entryDx=0;entryDy=0;" edge="1" target="iwaiVI-cJgjjKh6NhBmS-160" parent="1">
          <mxGeometry width="50" height="50" relative="1" as="geometry">
            <mxPoint x="311.87" y="2675" as="sourcePoint" />
            <mxPoint x="451.87" y="2645" as="targetPoint" />
          </mxGeometry>
        </mxCell>
        <mxCell id="iwaiVI-cJgjjKh6NhBmS-167" value="" style="endArrow=classic;html=1;rounded=0;exitX=1;exitY=0.5;exitDx=0;exitDy=0;movable=0;resizable=0;rotatable=0;deletable=0;editable=0;locked=1;connectable=0;" edge="1" source="iwaiVI-cJgjjKh6NhBmS-161" parent="1">
          <mxGeometry width="50" height="50" relative="1" as="geometry">
            <mxPoint x="401.87" y="2695" as="sourcePoint" />
            <mxPoint x="461.87" y="2720" as="targetPoint" />
          </mxGeometry>
        </mxCell>
        <mxCell id="iwaiVI-cJgjjKh6NhBmS-170" value="" style="shape=flexArrow;endArrow=classic;html=1;rounded=0;" edge="1" parent="1">
          <mxGeometry width="50" height="50" relative="1" as="geometry">
            <mxPoint x="191.25" y="2677" as="sourcePoint" />
            <mxPoint x="272.5" y="2677" as="targetPoint" />
          </mxGeometry>
        </mxCell>
        <mxCell id="iwaiVI-cJgjjKh6NhBmS-172" value="" style="endArrow=none;html=1;rounded=0;entryX=1;entryY=0.5;entryDx=0;entryDy=0;" edge="1" parent="1" target="iwaiVI-cJgjjKh6NhBmS-162">
          <mxGeometry width="50" height="50" relative="1" as="geometry">
            <mxPoint x="610" y="2670" as="sourcePoint" />
            <mxPoint x="520" y="2610" as="targetPoint" />
          </mxGeometry>
        </mxCell>
        <mxCell id="iwaiVI-cJgjjKh6NhBmS-173" value="" style="endArrow=none;html=1;rounded=0;exitX=1;exitY=0.5;exitDx=0;exitDy=0;" edge="1" parent="1" source="iwaiVI-cJgjjKh6NhBmS-163">
          <mxGeometry width="50" height="50" relative="1" as="geometry">
            <mxPoint x="470" y="2660" as="sourcePoint" />
            <mxPoint x="610" y="2690" as="targetPoint" />
          </mxGeometry>
        </mxCell>
        <mxCell id="iwaiVI-cJgjjKh6NhBmS-174" value="Моки" style="text;html=1;strokeColor=none;fillColor=none;align=center;verticalAlign=middle;whiteSpace=wrap;rounded=0;" vertex="1" parent="1">
          <mxGeometry x="616.88" y="2662.5" width="63.75" height="30" as="geometry" />
        </mxCell>
        <mxCell id="iwaiVI-cJgjjKh6NhBmS-175" value="" style="rounded=0;whiteSpace=wrap;html=1;rotation=90;" vertex="1" parent="1">
          <mxGeometry x="445" y="2635" width="23.75" height="10" as="geometry" />
        </mxCell>
        <mxCell id="iwaiVI-cJgjjKh6NhBmS-177" value="" style="rounded=0;whiteSpace=wrap;html=1;rotation=90;" vertex="1" parent="1">
          <mxGeometry x="414" y="2715" width="23.75" height="10" as="geometry" />
        </mxCell>
        <mxCell id="iwaiVI-cJgjjKh6NhBmS-178" value="" style="endArrow=none;html=1;rounded=0;" edge="1" parent="1">
          <mxGeometry width="50" height="50" relative="1" as="geometry">
            <mxPoint x="450" y="2770" as="sourcePoint" />
            <mxPoint x="440" y="2730" as="targetPoint" />
          </mxGeometry>
        </mxCell>
        <mxCell id="iwaiVI-cJgjjKh6NhBmS-179" value="Проверка взаимодействий" style="text;html=1;strokeColor=none;fillColor=none;align=center;verticalAlign=middle;whiteSpace=wrap;rounded=0;" vertex="1" parent="1">
          <mxGeometry x="425" y="2770" width="63.75" height="30" as="geometry" />
        </mxCell>
      </root>
    </mxGraphModel>
  </diagram>
</mxfile>
